# xmcd CD database file
#
# Track frame offsets:
#	150
#	7643
#	17992
#	29209
#	44521
#	53230
#	72004
#	89097
#	97198
#	104983
#	122379
#	129847
#
# Disc length: 1988 seconds
#
# Revision: 1
# Processed by: cddbd v1.5.2PL0 Copyright (c) Steve Scherf et al.
# Submitted via: CDex 1.70beta3
#
DISCID=a507c20c
DTITLE=satoru aoki - ascension C87
DYEAR=2014
DGENRE=Jazz
TTITLE0=satoru aoki - ascension 12
TTITLE1=satoru aoki - ascension 13
TTITLE2=satoru aoki - ascension 14
TTITLE3=satoru aoki - ascension 15
TTITLE4=satoru aoki - ascension 16
TTITLE5=satoru aoki - ascension 17
TTITLE6=satoru aoki - ascension 18
TTITLE7=satoru aoki - ascension 19
TTITLE8=satoru aoki - ascension 20
TTITLE9=satoru aoki - ascension 21
TTITLE10=satoru aoki - ascension 22
TTITLE11=satoru aoki - ascension 23
EXTD=YEAR: 2014
EXTT0=
EXTT1=
EXTT2=
EXTT3=
EXTT4=
EXTT5=
EXTT6=
EXTT7=
EXTT8=
EXTT9=
EXTT10=
EXTT11=
PLAYORDER=
